{"asset":{"version":"2.0","generator":"babylon.js glTF exporter for 3dsmax 2021 v20210401.5"},"scene":0,"scenes":[{"nodes":[0,1]}],"nodes":[{"mesh":0,"translation":[-2.87665725,-1.220253,-9.043791],"name":"chao"},{"translation":[-2.10410857,16.2081776,-8.297673],"scale":[1.029025,1.029025,1.029025],"name":"Camera001.Target"}],"meshes":[{"primitives":[{"attributes":{"POSITION":1,"TANGENT":2,"NORMAL":3,"TEXCOORD_0":4},"indices":0}],"name":"chao"}],"accessors":[{"bufferView":0,"componentType":5125,"count":384000,"type":"SCALAR","name":"accessorIndices"},{"bufferView":1,"componentType":5126,"count":384000,"max":[240.000229,6.939757,240.000031],"min":[-240.000031,0.00256351545,-240.000427],"type":"VEC3","name":"accessorPositions"},{"bufferView":2,"componentType":5126,"count":384000,"type":"VEC4","name":"accessorTangents"},{"bufferView":1,"byteOffset":4608000,"componentType":5126,"count":384000,"type":"VEC3","name":"accessorNormals"},{"bufferView":3,"componentType":5126,"count":384000,"type":"VEC2","name":"accessorUVs"}],"bufferViews":[{"buffer":0,"byteLength":1536000,"name":"bufferViewScalar"},{"buffer":0,"byteOffset":1536000,"byteLength":9216000,"byteStride":12,"name":"bufferViewFloatVec3"},{"buffer":0,"byteOffset":10752000,"byteLength":6144000,"byteStride":16,"name":"bufferViewFloatVec4"},{"buffer":0,"byteOffset":16896000,"byteLength":3072000,"byteStride":8,"name":"bufferViewFloatVec2"}],"buffers":[{"uri":"chao.bin","byteLength":19968000}]}