{"asset":{"version":"2.0","generator":"babylon.js glTF exporter for 3dsmax 2021 v20210401.5"},"scene":0,"scenes":[{"nodes":[0]}],"nodes":[{"mesh":0,"translation":[-0.7205445,-0.875095,-9.388063],"rotation":[0.0,-0.966478646,0.0,-0.256747127],"scale":[3.48731422,3.48731422,3.48731422],"name":"galho_02"}],"meshes":[{"primitives":[{"attributes":{"POSITION":1,"NORMAL":2,"TEXCOORD_0":3},"indices":0,"material":0}],"name":"galho_02"}],"accessors":[{"bufferView":0,"componentType":5123,"count":26724,"type":"SCALAR","name":"accessorIndices"},{"bufferView":1,"componentType":5126,"count":26724,"max":[0.221602514,0.693854451,0.239624858],"min":[-0.19466047,-0.05028954,-0.2813453],"type":"VEC3","name":"accessorPositions"},{"bufferView":1,"byteOffset":320688,"componentType":5126,"count":26724,"type":"VEC3","name":"accessorNormals"},{"bufferView":2,"componentType":5126,"count":26724,"type":"VEC2","name":"accessorUVs"}],"bufferViews":[{"buffer":0,"byteLength":53448,"name":"bufferViewScalar"},{"buffer":0,"byteOffset":53448,"byteLength":641376,"byteStride":12,"name":"bufferViewFloatVec3"},{"buffer":0,"byteOffset":694824,"byteLength":213792,"byteStride":8,"name":"bufferViewFloatVec2"}],"buffers":[{"uri":"galhos.bin","byteLength":908616}],"materials":[{"pbrMetallicRoughness":{"baseColorFactor":[0.08627451,0.145098045,0.172549024,1.0],"metallicFactor":0.0,"roughnessFactor":0.450053632},"normalTexture":{"index":0,"scale":0.5},"name":"galho"}],"textures":[{"sampler":0,"source":0,"name":"frontend-large.jpg"}],"images":[{"uri":"./frontend-large.jpg"}],"samplers":[{"magFilter":9729,"minFilter":9987}]}