{
  "asset": {
    "version": "2.0",
    "generator": "GLTFExporter"
  },
  "scenes": [
    {
      "name": "AuxScene",
      "nodes": [
        4
      ]
    }
  ],
  "scene": 0,
  "nodes": [
    {
      "name": "galho_04",
      "extras": {
        "name": "galho_04"
      },
      "mesh": 0
    },
    {
      "name": "galho_03",
      "extras": {
        "name": "galho_03"
      },
      "mesh": 1
    },
    {
      "name": "galho_02",
      "extras": {
        "name": "galho_02"
      },
      "mesh": 2
    },
    {
      "name": "galho_01",
      "extras": {
        "name": "galho_01"
      },
      "mesh": 3
    },
    {
      "name": "entity_1",
      "children": [
        0,
        1,
        2,
        3
      ]
    }
  ],
  "bufferViews": [
    {
      "buffer": 0,
      "byteOffset": 0,
      "byteLength": 106992,
      "target": 34962,
      "byteStride": 12
    },
    {
      "buffer": 0,
      "byteOffset": 106992,
      "byteLength": 106992,
      "target": 34962,
      "byteStride": 12
    },
    {
      "buffer": 0,
      "byteOffset": 213984,
      "byteLength": 71328,
      "target": 34962,
      "byteStride": 8
    },
    {
      "buffer": 0,
      "byteOffset": 285312,
      "byteLength": 17832,
      "target": 34963
    },
    {
      "buffer": 0,
      "byteOffset": 303144,
      "byteLength": 69120,
      "target": 34962,
      "byteStride": 12
    },
    {
      "buffer": 0,
      "byteOffset": 372264,
      "byteLength": 69120,
      "target": 34962,
      "byteStride": 12
    },
    {
      "buffer": 0,
      "byteOffset": 441384,
      "byteLength": 46080,
      "target": 34962,
      "byteStride": 8
    },
    {
      "buffer": 0,
      "byteOffset": 487464,
      "byteLength": 11520,
      "target": 34963
    },
    {
      "buffer": 0,
      "byteOffset": 498984,
      "byteLength": 80064,
      "target": 34962,
      "byteStride": 12
    },
    {
      "buffer": 0,
      "byteOffset": 579048,
      "byteLength": 80064,
      "target": 34962,
      "byteStride": 12
    },
    {
      "buffer": 0,
      "byteOffset": 659112,
      "byteLength": 53376,
      "target": 34962,
      "byteStride": 8
    },
    {
      "buffer": 0,
      "byteOffset": 712488,
      "byteLength": 13344,
      "target": 34963
    },
    {
      "buffer": 0,
      "byteOffset": 725832,
      "byteLength": 64512,
      "target": 34962,
      "byteStride": 12
    },
    {
      "buffer": 0,
      "byteOffset": 790344,
      "byteLength": 64512,
      "target": 34962,
      "byteStride": 12
    },
    {
      "buffer": 0,
      "byteOffset": 854856,
      "byteLength": 43008,
      "target": 34962,
      "byteStride": 8
    },
    {
      "buffer": 0,
      "byteOffset": 897864,
      "byteLength": 10752,
      "target": 34963
    }
  ],
  "buffers": [
    {
      "byteLength": 908616,
      "uri": "data:application/octet-stream;base64,"
    }
  ],
  "accessors": [
    {
      "bufferView": 0,
      "componentType": 5126,
      "count": 8916,
      "max": [
        -3.6870999336242676,
        60.81079864501953,
        -356.3002014160156
      ],
      "min": [
        -53.418701171875,
        -38.174598693847656,
        -389.9093017578125
      ],
      "type": "VEC3"
    },
    {
      "bufferView": 1,
      "componentType": 5126,
      "count": 8916,
      "max": [
        0.9998000264167786,
        0.9994999766349792,
        0.9994000196456909
      ],
      "min": [
        -0.9986000061035156,
        -0.9965999722480774,
        -0.9991999864578247
      ],
      "type": "VEC3"
    },
    {
      "bufferView": 2,
      "componentType": 5126,
      "count": 8916,
      "max": [
        1,
        1
      ],
      "min": [
        0,
        0
      ],
      "type": "VEC2"
    },
    {
      "bufferView": 3,
      "componentType": 5123,
      "count": 8916,
      "max": [
        8915
      ],
      "min": [
        0
      ],
      "type": "SCALAR"
    },
    {
      "bufferView": 4,
      "componentType": 5126,
      "count": 5760,
      "max": [
        0.44780001044273376,
        38.665000915527344,
        -356.4855041503906
      ],
      "min": [
        -35.71179962158203,
        -41.35710144042969,
        -382.5389099121094
      ],
      "type": "VEC3"
    },
    {
      "bufferView": 5,
      "componentType": 5126,
      "count": 5760,
      "max": [
        0.9979000091552734,
        1,
        0.9962000250816345
      ],
      "min": [
        -0.9941999912261963,
        -0.9994999766349792,
        -0.9986000061035156
      ],
      "type": "VEC3"
    },
    {
      "bufferView": 6,
      "componentType": 5126,
      "count": 5760,
      "max": [
        1,
        1
      ],
      "min": [
        0,
        0
      ],
      "type": "VEC2"
    },
    {
      "bufferView": 7,
      "componentType": 5123,
      "count": 5760,
      "max": [
        5759
      ],
      "min": [
        0
      ],
      "type": "SCALAR"
    },
    {
      "bufferView": 8,
      "componentType": 5126,
      "count": 6672,
      "max": [
        -11.58530044555664,
        49.936798095703125,
        -339.3951110839844
      ],
      "min": [
        -54.20589828491211,
        -32.45069885253906,
        -371.1881103515625
      ],
      "type": "VEC3"
    },
    {
      "bufferView": 9,
      "componentType": 5126,
      "count": 6672,
      "max": [
        0.9980000257492065,
        0.9957000017166138,
        0.9998999834060669
      ],
      "min": [
        -0.9979000091552734,
        -0.9807000160217285,
        -0.9998999834060669
      ],
      "type": "VEC3"
    },
    {
      "bufferView": 10,
      "componentType": 5126,
      "count": 6672,
      "max": [
        1,
        1
      ],
      "min": [
        0,
        0
      ],
      "type": "VEC2"
    },
    {
      "bufferView": 11,
      "componentType": 5123,
      "count": 6672,
      "max": [
        6671
      ],
      "min": [
        0
      ],
      "type": "SCALAR"
    },
    {
      "bufferView": 12,
      "componentType": 5126,
      "count": 5376,
      "max": [
        -19.156200408935547,
        49.51110076904297,
        -364.6951904296875
      ],
      "min": [
        -54.591400146484375,
        -34.16239929199219,
        -402.2384948730469
      ],
      "type": "VEC3"
    },
    {
      "bufferView": 13,
      "componentType": 5126,
      "count": 5376,
      "max": [
        0.9965999722480774,
        0.9846000075340271,
        0.9998999834060669
      ],
      "min": [
        -0.9991999864578247,
        -0.9889000058174133,
        -0.9973999857902527
      ],
      "type": "VEC3"
    },
    {
      "bufferView": 14,
      "componentType": 5126,
      "count": 5376,
      "max": [
        1,
        1
      ],
      "min": [
        0,
        0
      ],
      "type": "VEC2"
    },
    {
      "bufferView": 15,
      "componentType": 5123,
      "count": 5376,
      "max": [
        5375
      ],
      "min": [
        0
      ],
      "type": "SCALAR"
    }
  ],
  "materials": [
    {
      "pbrMetallicRoughness": {
        "baseColorFactor": [
          0.08627450980392157,
          0.1450980392156863,
          0.16862745098039217,
          1
        ],
        "metallicFactor": 0.5,
        "roughnessFactor": 0.5
      },
      "name": "galho"
    }
  ],
  "meshes": [
    {
      "primitives": [
        {
          "mode": 4,
          "attributes": {
            "POSITION": 0,
            "NORMAL": 1,
            "TEXCOORD_0": 2
          },
          "indices": 3,
          "material": 0
        }
      ]
    },
    {
      "primitives": [
        {
          "mode": 4,
          "attributes": {
            "POSITION": 4,
            "NORMAL": 5,
            "TEXCOORD_0": 6
          },
          "indices": 7,
          "material": 0
        }
      ]
    },
    {
      "primitives": [
        {
          "mode": 4,
          "attributes": {
            "POSITION": 8,
            "NORMAL": 9,
            "TEXCOORD_0": 10
          },
          "indices": 11,
          "material": 0
        }
      ]
    },
    {
      "primitives": [
        {
          "mode": 4,
          "attributes": {
            "POSITION": 12,
            "NORMAL": 13,
            "TEXCOORD_0": 14
          },
          "indices": 15,
          "material": 0
        }
      ]
    }
  ]
}