{"asset":{"version":"2.0","generator":"babylon.js glTF exporter for 3dsmax 2021 v20210401.5"},"scene":0,"scenes":[{"nodes":[0]}],"nodes":[{"mesh":0,"translation":[-0.004216022,0.0103719654,0.104688592],"scale":[1.05278635,1.43446469,1.08505619],"name":"ovo"}],"meshes":[{"primitives":[{"attributes":{"POSITION":1,"NORMAL":2,"TEXCOORD_0":3},"indices":0,"material":0}],"name":"ovo"}],"accessors":[{"bufferView":0,"componentType":5123,"count":7200,"type":"SCALAR","name":"accessorIndices"},{"bufferView":1,"componentType":5126,"count":7200,"max":[4.13548374,4.07669973,4.14365959],"min":[-4.13548326,-4.07669973,-4.14365959],"type":"VEC3","name":"accessorPositions"},{"bufferView":1,"byteOffset":86400,"componentType":5126,"count":7200,"type":"VEC3","name":"accessorNormals"},{"bufferView":2,"componentType":5126,"count":7200,"type":"VEC2","name":"accessorUVs"}],"bufferViews":[{"buffer":0,"byteLength":14400,"name":"bufferViewScalar"},{"buffer":0,"byteOffset":14400,"byteLength":172800,"byteStride":12,"name":"bufferViewFloatVec3"},{"buffer":0,"byteOffset":187200,"byteLength":57600,"byteStride":8,"name":"bufferViewFloatVec2"}],"buffers":[{"uri":"ovo.bin","byteLength":244800}],"materials":[{"pbrMetallicRoughness":{"baseColorFactor":[0.0,0.152941182,0.203921571,0.3],"metallicFactor":0.0,"roughnessFactor":0.165830582},"alphaMode":"BLEND","doubleSided":true,"name":"01 - Default"}]}