{"asset":{"version":"2.0","generator":"babylon.js glTF exporter for 3dsmax 2021 v20210401.5"},"scene":0,"scenes":[{"nodes":[0]}],"nodes":[{"mesh":0,"translation":[-0.842808843,-0.9405658,-9.427421],"rotation":[0.0,0.2365226,0.0,0.971626],"scale":[3.48731518,3.48731422,3.48731518],"name":"galho_01"}],"meshes":[{"primitives":[{"attributes":{"POSITION":1,"TANGENT":2,"NORMAL":3,"TEXCOORD_0":4},"indices":0,"material":0}],"name":"galho_01"}],"accessors":[{"bufferView":0,"componentType":5123,"count":26838,"type":"SCALAR","name":"accessorIndices"},{"bufferView":1,"componentType":5126,"count":26838,"max":[0.228847876,0.7126282,0.233876079],"min":[-0.240535587,-0.031515725,-0.16372329],"type":"VEC3","name":"accessorPositions"},{"bufferView":2,"componentType":5126,"count":26838,"type":"VEC4","name":"accessorTangents"},{"bufferView":1,"byteOffset":322056,"componentType":5126,"count":26838,"type":"VEC3","name":"accessorNormals"},{"bufferView":3,"componentType":5126,"count":26838,"type":"VEC2","name":"accessorUVs"}],"bufferViews":[{"buffer":0,"byteLength":53676,"name":"bufferViewScalar"},{"buffer":0,"byteOffset":53676,"byteLength":644112,"byteStride":12,"name":"bufferViewFloatVec3"},{"buffer":0,"byteOffset":697788,"byteLength":429408,"byteStride":16,"name":"bufferViewFloatVec4"},{"buffer":0,"byteOffset":1127196,"byteLength":214704,"byteStride":8,"name":"bufferViewFloatVec2"}],"buffers":[{"uri":"ovovus.bin","byteLength":1341900}],"materials":[{"pbrMetallicRoughness":{"baseColorFactor":[0.08627451,0.145098045,0.172549024,1.0],"metallicFactor":0.0,"roughnessFactor":0.450053632},"normalTexture":{"index":0,"scale":0.5},"name":"galho"}],"textures":[{"sampler":0,"source":0,"name":"frontend-large.jpg"}],"images":[{"uri":"./frontend-large.jpg"}],"samplers":[{"magFilter":9729,"minFilter":9987}]}