{"asset":{"version":"2.0","generator":"babylon.js glTF exporter for 3dsmax 2021 v20210401.5"},"scene":0,"scenes":[{"nodes":[0]}],"nodes":[{"children":[1,2,3,4,5,6,7],"translation":[0.237557679,0.07363427,-0.131351471],"name":"Group001"},{"mesh":0,"translation":[-0.009695822,-1.28011537,-2.20207667],"rotation":[1.05262716E-14,2.82129974E-07,1.0,3.731001E-08],"scale":[0.596214056,-0.596214,0.596214],"name":"olho_cima001"},{"mesh":0,"translation":[0.045676183,-1.28011537,-2.20207667],"rotation":[0.0,0.0,-3.731001E-08,1.0],"scale":[0.596214056,0.596214,0.596214],"name":"olho_cima"},{"mesh":1,"translation":[-0.009695822,-1.28011537,-2.20207667],"rotation":[0.0,2.82129974E-07,1.0,0.0],"scale":[0.596214056,-0.596214056,0.596214056],"name":"olho_baixo001"},{"mesh":1,"translation":[0.045676183,-1.28011537,-2.20207667],"scale":[0.596214056,0.596214056,0.596214056],"name":"olho_baixo"},{"mesh":2,"translation":[0.0590430051,0.00213465653,-1.32376122],"rotation":[0.0,0.0,-3.73099525E-08,1.0],"scale":[1.1906817,0.99999994,1.03443956],"name":"corpo"},{"mesh":3,"translation":[0.0716964453,-1.17686,-1.90404129],"scale":[0.542562068,0.542562068,0.542562068],"name":"bico_cima"},{"mesh":4,"translation":[0.08046568,-1.27639818,-1.93937254],"scale":[0.542562068,0.542562068,0.542562068],"name":"bico_baixo"}],"meshes":[{"primitives":[{"attributes":{"POSITION":1,"NORMAL":2,"TEXCOORD_0":3},"indices":0,"material":0}],"name":"olho_cima001"},{"primitives":[{"attributes":{"POSITION":5,"NORMAL":6,"TEXCOORD_0":7},"indices":4,"material":0}],"name":"olho_baixo001"},{"primitives":[{"attributes":{"POSITION":9,"NORMAL":10,"TEXCOORD_0":11},"indices":8,"material":1}],"name":"corpo"},{"primitives":[{"attributes":{"POSITION":13,"NORMAL":14,"TEXCOORD_0":15},"indices":12,"material":2}],"name":"bico_cima"},{"primitives":[{"attributes":{"POSITION":17,"NORMAL":18,"TEXCOORD_0":19},"indices":16,"material":2}],"name":"bico_baixo"}],"accessors":[{"bufferView":0,"componentType":5123,"count":1632,"type":"SCALAR","name":"accessorIndices"},{"bufferView":1,"componentType":5126,"count":1632,"max":[1.79536343,4.436029,2.16870785],"min":[0.5070805,3.358726,0.766698956],"type":"VEC3","name":"accessorPositions"},{"bufferView":1,"byteOffset":19584,"componentType":5126,"count":1632,"type":"VEC3","name":"accessorNormals"},{"bufferView":2,"componentType":5126,"count":1632,"type":"VEC2","name":"accessorUVs"},{"bufferView":0,"byteOffset":3264,"componentType":5123,"count":1632,"type":"SCALAR","name":"accessorIndices"},{"bufferView":1,"byteOffset":39168,"componentType":5126,"count":1632,"max":[1.73308,4.12686253,2.09461355],"min":[0.477944165,3.07114959,0.728418648],"type":"VEC3","name":"accessorPositions"},{"bufferView":1,"byteOffset":58752,"componentType":5126,"count":1632,"type":"VEC3","name":"accessorNormals"},{"bufferView":2,"byteOffset":13056,"componentType":5126,"count":1632,"type":"VEC2","name":"accessorUVs"},{"bufferView":0,"byteOffset":6528,"componentType":5123,"count":31662,"type":"SCALAR","name":"accessorIndices"},{"bufferView":1,"byteOffset":78336,"componentType":5126,"count":31662,"max":[1.24581337,1.80022752,3.42023587],"min":[-1.34498858,-1.80449677,-0.86085695],"type":"VEC3","name":"accessorPositions"},{"bufferView":1,"byteOffset":458280,"componentType":5126,"count":31662,"type":"VEC3","name":"accessorNormals"},{"bufferView":2,"byteOffset":26112,"componentType":5126,"count":31662,"type":"VEC2","name":"accessorUVs"},{"bufferView":0,"byteOffset":69852,"componentType":5123,"count":2040,"type":"SCALAR","name":"accessorIndices"},{"bufferView":1,"byteOffset":838224,"componentType":5126,"count":2040,"max":[0.929952443,3.855906,3.26927328],"min":[-1.1333704,2.449412,1.97775269],"type":"VEC3","name":"accessorPositions"},{"bufferView":1,"byteOffset":862704,"componentType":5126,"count":2040,"type":"VEC3","name":"accessorNormals"},{"bufferView":2,"byteOffset":279408,"componentType":5126,"count":2040,"type":"VEC2","name":"accessorUVs"},{"bufferView":0,"byteOffset":73932,"componentType":5123,"count":2040,"type":"SCALAR","name":"accessorIndices"},{"bufferView":1,"byteOffset":887184,"componentType":5126,"count":2040,"max":[0.763432562,3.43185377,3.18743181],"min":[-0.9898163,2.56062055,1.86181092],"type":"VEC3","name":"accessorPositions"},{"bufferView":1,"byteOffset":911664,"componentType":5126,"count":2040,"type":"VEC3","name":"accessorNormals"},{"bufferView":2,"byteOffset":295728,"componentType":5126,"count":2040,"type":"VEC2","name":"accessorUVs"}],"bufferViews":[{"buffer":0,"byteLength":78012,"name":"bufferViewScalar"},{"buffer":0,"byteOffset":78012,"byteLength":936144,"byteStride":12,"name":"bufferViewFloatVec3"},{"buffer":0,"byteOffset":1014156,"byteLength":312048,"byteStride":8,"name":"bufferViewFloatVec2"}],"buffers":[{"uri":"passaro.bin","byteLength":1326204}],"materials":[{"pbrMetallicRoughness":{"baseColorFactor":[0.105254896,0.20094116,0.263137251,1.0],"metallicFactor":0.0,"roughnessFactor":0.39},"name":"olho"},{"pbrMetallicRoughness":{"baseColorFactor":[0.065882355,0.362352967,0.472156882,1.0],"metallicFactor":0.0,"roughnessFactor":0.599999964},"normalTexture":{"index":0,"scale":0.23},"emissiveFactor":[0.00325490185,0.005372549,0.006156863],"name":"corpo_anjo"},{"pbrMetallicRoughness":{"baseColorFactor":[0.0329411775,0.0521568656,0.0796078444,1.0],"metallicFactor":0.0,"roughnessFactor":0.06},"normalTexture":{"index":1,"scale":0.2},"name":"bico"}],"textures":[{"sampler":0,"source":0,"name":"pele_frango.jpg"},{"sampler":0,"source":1,"name":"bone2.png"}],"images":[{"uri":"./pele_frango.jpg"},{"uri":"./bone2.png"}],"samplers":[{"magFilter":9729,"minFilter":9987}]}